<?xml version="1.0" encoding="UTF-8" standalone="no"?>
<!-- Created with Inkscape (http://www.inkscape.org/) -->

<svg
   width="48mm"
   height="48mm"
   viewBox="0 0 48 47.999998"
   version="1.1"
   id="svg5"
   xml:space="preserve"
   inkscape:version="1.2.2 (b0a8486, 2022-12-01)"
   sodipodi:docname="map.svg"
   xmlns:inkscape="http://www.inkscape.org/namespaces/inkscape"
   xmlns:sodipodi="http://sodipodi.sourceforge.net/DTD/sodipodi-0.dtd"
   xmlns="http://www.w3.org/2000/svg"
   xmlns:svg="http://www.w3.org/2000/svg"><sodipodi:namedview
     id="namedview7"
     pagecolor="#ffffff"
     bordercolor="#000000"
     borderopacity="0.25"
     inkscape:showpageshadow="2"
     inkscape:pageopacity="0.0"
     inkscape:pagecheckerboard="0"
     inkscape:deskcolor="#d1d1d1"
     inkscape:document-units="mm"
     showgrid="false"
     inkscape:zoom="3.8110113"
     inkscape:cx="65.468187"
     inkscape:cy="95.906302"
     inkscape:window-width="1440"
     inkscape:window-height="761"
     inkscape:window-x="0"
     inkscape:window-y="25"
     inkscape:window-maximized="0"
     inkscape:current-layer="g7202" /><defs
     id="defs2"><inkscape:path-effect
       effect="simplify"
       id="path-effect3397"
       is_visible="true"
       lpeversion="1"
       steps="1"
       threshold="0.00192982"
       smooth_angles="360"
       helper_size="0"
       simplify_individual_paths="false"
       simplify_just_coalesce="false" /><inkscape:path-effect
       effect="simplify"
       id="path-effect3340"
       is_visible="true"
       lpeversion="1"
       steps="1"
       threshold="0.00192982"
       smooth_angles="360"
       helper_size="0"
       simplify_individual_paths="false"
       simplify_just_coalesce="false" /><inkscape:path-effect
       effect="simplify"
       id="path-effect3397-8"
       is_visible="true"
       lpeversion="1"
       steps="1"
       threshold="0.00192982"
       smooth_angles="360"
       helper_size="0"
       simplify_individual_paths="false"
       simplify_just_coalesce="false" /></defs><g
     inkscape:label="Layer 1"
     inkscape:groupmode="layer"
     id="layer1"><g
       id="g7202"
       transform="matrix(1.6561339,0,0,1.6561339,-6.2730492,-5.0307379)"
       style="stroke:#000000;stroke-opacity:0.5"><path
         style="fill:none;stroke:#ffffff;stroke-width:0.18114477;stroke-dasharray:none;stroke-opacity:0.60000002"
         d="m 15.409174,27.080834 c -0.04835,-0.03759 -0.08716,-0.04576 -0.220535,-0.04641 -0.149452,-6.26e-4 -0.174731,-0.0076 -0.329883,-0.09024 -0.14623,-0.07785 -0.179918,-0.107113 -0.259695,-0.225611 -0.160482,-0.238349 -0.303701,-0.324901 -0.53762,-0.324901 -0.188368,0 -0.297634,-0.04348 -0.447768,-0.178166 -0.05452,-0.04892 -0.122765,-0.09606 -0.151643,-0.10476 -0.09469,-0.02851 -0.262128,-0.133314 -0.385434,-0.241206 -0.0666,-0.05829 -0.133759,-0.105959 -0.149242,-0.105959 -0.01548,0 -0.08346,-0.02935 -0.151053,-0.06524 -0.117034,-0.06213 -0.131084,-0.06464 -0.294292,-0.05254 l -0.17139,0.01266 -0.115531,-0.110244 c -0.129773,-0.123833 -0.185552,-0.252459 -0.145844,-0.336302 0.01224,-0.02585 0.03337,-0.101452 0.04697,-0.167998 0.02954,-0.144593 0.08244,-0.212072 0.241155,-0.307592 l 0.118883,-0.07154 0.101671,0.100141 c 0.09992,0.09841 0.102972,0.09972 0.177043,0.07527 0.08585,-0.02833 0.107464,-0.05333 0.107464,-0.124322 0,-0.0838 0.08875,-0.131648 0.251429,-0.135578 0.148475,-0.0036 0.141978,-0.0071 0.196836,0.106824 0.02382,0.04947 0.260677,0.186671 0.396972,0.22992 0.108588,0.03446 0.11195,0.0342 0.241539,-0.01865 0.119912,-0.04885 0.144295,-0.05187 0.278444,-0.03428 0.277444,0.03635 0.549483,-0.01221 0.774971,-0.13831 0.147545,-0.08251 0.290001,-0.09945 0.425231,-0.05054 0.06491,0.02347 0.08622,0.01665 0.359455,-0.115529 0.159753,-0.07725 0.307211,-0.140464 0.327687,-0.140464 0.04161,0 0.122452,0.03835 0.141225,0.06697 0.02118,0.03233 0.117667,-0.0191 0.172563,-0.09192 0.06015,-0.07982 0.11974,-0.243487 0.11974,-0.328827 0,-0.06439 -0.0311,-0.11282 -0.09361,-0.145704 -0.03906,-0.02065 -0.03779,-0.02474 0.02556,-0.08391 0.09408,-0.08788 0.195215,-0.130716 0.308582,-0.130716 0.09159,0 0.09956,-0.0044 0.128097,-0.07283 0.04581,-0.109645 0.03757,-0.176035 -0.03169,-0.254898 -0.07521,-0.08564 -0.120817,-0.231095 -0.148153,-0.472406 -0.0244,-0.215425 -0.0595,-0.322689 -0.147409,-0.450457 -0.103963,-0.151099 -0.169394,-0.313983 -0.191814,-0.477497 -0.02504,-0.182652 -0.08086,-0.317061 -0.169824,-0.408999 -0.08282,-0.08558 -0.141001,-0.08615 -0.236509,-0.0022 -0.09118,0.08007 -0.108543,0.07452 -0.304383,-0.09719 -0.07509,-0.06583 -0.190701,-0.147214 -0.256921,-0.180875 -0.142802,-0.07259 -0.166412,-0.12632 -0.110235,-0.25089 0.03552,-0.07878 0.0355,-0.0866 -4.34e-4,-0.182475 -0.0499,-0.133136 -0.124193,-0.259811 -0.186957,-0.318777 -0.04124,-0.03875 -0.06465,-0.04521 -0.121102,-0.03342 -0.03849,0.008 -0.09091,0.02787 -0.116499,0.04405 -0.02559,0.01621 -0.08434,0.02944 -0.130559,0.02944 -0.04622,0 -0.117536,0.01599 -0.158476,0.0355 -0.05612,0.02676 -0.08038,0.02955 -0.0986,0.01132 -0.01823,-0.01821 6.77e-4,-0.04701 0.07693,-0.116994 0.1173,-0.107713 0.115853,-0.129984 -0.01461,-0.224691 -0.08238,-0.05982 -0.09976,-0.06435 -0.199345,-0.05198 -0.06605,0.0082 -0.126209,0.0044 -0.152461,-0.0098 -0.02385,-0.01266 -0.08195,-0.09994 -0.129109,-0.193754 -0.207754,-0.413203 -0.375588,-0.5983 -0.487967,-0.538157 -0.02796,0.01488 -0.09792,0.0075 -0.245688,-0.02591 l -0.206599,-0.04685 -0.1155,0.04687 c -0.12894,0.05234 -0.18515,0.04508 -0.218531,-0.02818 -0.04786,-0.105048 -0.154437,-0.19966 -0.273876,-0.243143 -0.224683,-0.08178 -0.275192,-0.111198 -0.332128,-0.193354 -0.03134,-0.04521 -0.140948,-0.162135 -0.243577,-0.259791 -0.10958,-0.104272 -0.196307,-0.205745 -0.210123,-0.245817 -0.01295,-0.03752 -0.04269,-0.09439 -0.06611,-0.126342 -0.05293,-0.07221 -0.230284,-0.195375 -0.32824,-0.227955 -0.108756,-0.03617 -0.139278,-0.07123 -0.202664,-0.232791 -0.06722,-0.17135 -0.151682,-0.254008 -0.372263,-0.364363 -0.167733,-0.08391 -0.217704,-0.08884 -0.293783,-0.029 -0.06388,0.05025 -0.127264,0.03957 -0.16315,-0.02749 -0.02056,-0.03839 -0.01437,-0.05178 0.04704,-0.101895 l 0.07069,-0.05771 -0.04522,-0.09308 c -0.05429,-0.111754 -0.26418,-0.343879 -0.328459,-0.36327 -0.084205,-0.0254 -0.1614267,-0.116483 -0.1614267,-0.190401 0,-0.07525 -0.060356,-0.133781 -0.1379392,-0.133781 -0.1009648,0 -0.1694493,-0.146769 -0.1813153,-0.388565 C 9.5619891,15.946657 9.5294044,15.860933 9.3885786,15.671322 9.2903138,15.53903 9.2666508,15.457007 9.2408184,15.159226 9.2242319,14.967959 9.2098502,14.902881 9.1689211,14.833675 9.0825334,14.687615 8.9717987,14.599471 8.8097621,14.547807 8.6080723,14.483503 8.3472409,14.343084 8.1530817,14.194287 7.9827465,14.063748 7.9270687,14.0405 7.5468932,13.941227 l -0.2337036,-0.06104 -0.1023504,0.05607 c -0.1805758,0.0989 -0.2377834,0.153431 -0.3007239,0.286647 -0.050364,0.106603 -0.072717,0.132071 -0.1303588,0.148613 -0.082218,0.02358 -0.1463302,0.110533 -0.2097455,0.284443 -0.039623,0.108667 -0.058683,0.131759 -0.162768,0.197129 -0.064839,0.04072 -0.1698712,0.08895 -0.2334072,0.107157 -0.063535,0.01821 -0.1244968,0.04152 -0.1354724,0.0518 -0.010969,0.01021 -0.093295,0.01865 -0.1829361,0.01865 H 5.6924417 l -0.024871,-0.08302 c -0.024855,-0.08296 -0.024806,-0.08309 0.083943,-0.202059 0.059849,-0.06548 0.1234976,-0.147458 0.1414431,-0.182163 0.030022,-0.05806 0.029543,-0.06917 -0.00602,-0.139243 -0.021249,-0.04188 -0.039786,-0.07885 -0.041171,-0.08216 -0.00139,-0.0033 -0.051356,0.01332 -0.1110478,0.03675 -0.167089,0.06588 -0.2475242,0.05662 -0.4560229,-0.05245 -0.1001272,-0.05237 -0.2073936,-0.113258 -0.238366,-0.135329 -0.097985,-0.06977 -0.1676597,-0.19402 -0.1979551,-0.353027 l -0.028526,-0.1497 0.1043199,-0.174193 c 0.130432,-0.217801 0.1474538,-0.261319 0.1311848,-0.335385 -0.00935,-0.04261 -0.028892,-0.06262 -0.069128,-0.07083 -0.2251923,-0.04592 -0.2823622,-0.09323 -0.3828174,-0.316858 -0.031825,-0.07085 -0.068205,-0.135202 -0.08085,-0.143018 -0.050726,-0.03135 -0.016875,-0.0662 0.1008626,-0.103818 0.068214,-0.0218 0.1467943,-0.03381 0.1749227,-0.02675 0.056205,0.01412 0.3202174,-0.100501 0.3700033,-0.160616 0.015498,-0.01872 0.033411,-0.09176 0.03981,-0.162324 L 5.2137906,12.06619 5.1095441,11.95742 C 5.0522083,11.8976 4.9937424,11.821375 4.9796183,11.788035 4.9654964,11.754696 4.9096439,11.671037 4.8555011,11.602126 4.7754927,11.500289 4.7570654,11.46108 4.7570654,11.392707 c 0,-0.09579 0.062105,-0.163652 0.1497763,-0.163652 0.067523,0 0.1328146,-0.0359 0.1328146,-0.07301 0,-0.05237 0.040973,-0.05687 0.099404,-0.0109 0.0635,0.04995 0.1603367,0.04435 0.250069,-0.01443 0.03008,-0.01972 0.069699,-0.02717 0.1016754,-0.01914 0.036988,0.0093 0.085397,-0.0055 0.1646287,-0.05019 0.06173,-0.03484 0.1282827,-0.06334 0.1478912,-0.06334 0.019606,0 0.092862,0.02887 0.1627792,0.06417 0.1336427,0.06746 0.170122,0.06326 0.1974221,-0.02276 0.00677,-0.02134 0.043389,-0.04907 0.081363,-0.0616 0.037974,-0.01252 0.093675,-0.04856 0.1237797,-0.08006 0.062836,-0.06575 0.1400842,-0.225329 0.1407636,-0.290786 2.605e-4,-0.02447 0.042927,-0.128434 0.094832,-0.231037 0.099888,-0.197462 0.1648486,-0.259763 0.2710467,-0.259956 l 0.060868,-7.8e-5 -0.012168,0.187866 c -0.011746,0.181255 -0.010125,0.190705 0.046274,0.268547 0.099359,0.137162 0.1827385,0.194693 0.2821712,0.194693 0.048527,0 0.1102462,0.01541 0.1371532,0.03427 0.042428,0.02972 0.047104,0.04565 0.035218,0.119956 -0.011657,0.07294 -0.00679,0.09089 0.032694,0.120686 0.025515,0.01925 0.061621,0.07632 0.080233,0.126833 0.039426,0.107011 0.1085631,0.134644 0.1487949,0.05947 0.020827,-0.03892 0.016031,-0.05406 -0.033551,-0.105812 -0.05559,-0.05802 -0.056809,-0.06391 -0.031073,-0.150136 0.035358,-0.118464 0.1103816,-0.24445 0.1914071,-0.321434 0.1264441,-0.120136 0.1929324,-0.316131 0.1458239,-0.429861 -0.037385,-0.09025 -0.012812,-0.159512 0.066355,-0.187115 0.053679,-0.01872 0.076378,-0.01685 0.1167742,0.0096 0.054975,0.03602 0.059276,0.04496 0.079298,0.164837 0.015543,0.0931 0.1022682,0.192204 0.1867308,0.213401 0.043214,0.01086 0.079889,-0.0029 0.165679,-0.06196 0.1171117,-0.08066 0.2297089,-0.122889 0.2781169,-0.104313 0.016187,0.0062 0.046365,0.0639 0.067059,0.128207 0.042166,0.131021 0.08986,0.175991 0.1478934,0.139445 0.080672,-0.0508 0.055271,-0.211755 -0.048292,-0.305995 -0.085684,-0.07797 -0.093162,-0.146357 -0.029625,-0.2709005 0.04285,-0.08399 0.1474893,-0.1661408 0.2118127,-0.1662874 0.020916,-4.79e-5 0.038864,0.023583 0.046349,0.061002 0.00933,0.046667 0.029698,0.06685 0.086275,0.085522 0.040734,0.013434 0.095489,0.021405 0.1216813,0.017675 0.041171,-0.00584 0.047131,-0.018141 0.043989,-0.090773 -0.01561,-0.361438 -0.014921,-0.4515807 0.00364,-0.4689342 0.011546,-0.010814 0.090045,-0.026119 0.1744275,-0.03403 l 0.1534244,-0.014388 0.067325,0.0735 c 0.03703,0.040427 0.095485,0.08421 0.1299036,0.097294 0.132275,0.05029 0.262547,-0.023572 0.262547,-0.1488615 0,-0.1238041 0.12001,-0.2013967 0.406734,-0.2629763 0.154328,-0.033146 0.349894,-0.026234 0.441726,0.01561 0.03768,0.017164 0.09601,0.0026 0.297568,-0.074295 0.137884,-0.052606 0.27394,-0.098216 0.302345,-0.1013556 0.07952,-0.00879 0.07863,0.056696 -0.0018,0.1301234 l -0.06865,0.062696 0.03444,0.072219 c 0.01894,0.039719 0.0528,0.078048 0.07524,0.085169 0.03873,0.012279 0.06985,0.052515 0.199529,0.2579238 0.0785,0.1243458 0.139542,0.1571725 0.369555,0.198741 0.110626,0.019984 0.295946,0.059152 0.41182,0.087021 0.115875,0.027864 0.342711,0.065962 0.504082,0.08466 0.55118,0.063862 0.585853,0.1058183 0.277157,0.3353823 -0.202191,0.150363 -0.233704,0.187742 -0.216404,0.256674 0.01021,0.04066 0.02314,0.0517 0.04897,0.0418 0.01932,-0.0074 0.08971,0.0036 0.156466,0.02434 0.107824,0.03359 0.121386,0.04405 0.121546,0.09368 1.28e-4,0.03884 -0.02808,0.0828 -0.09253,0.144221 -0.0982,0.09359 -0.123429,0.14475 -0.09439,0.191403 0.01443,0.0232 0.02576,0.02364 0.06015,0.0024 0.0233,-0.01443 0.05194,-0.02625 0.06365,-0.02625 0.02902,0 0.02689,0.139065 -0.0034,0.222913 -0.03149,0.0871 -0.0057,0.121224 0.140546,0.185898 0.07809,0.03454 0.127977,0.07652 0.18462,0.155361 0.04269,0.05942 0.07762,0.12195 0.07762,0.138954 0,0.04533 -0.117376,0.09838 -0.201235,0.09095 -0.08254,-0.0073 -0.106494,-0.04501 -0.03505,-0.05516 0.06114,-0.0087 0.05964,-0.0224 -0.0135,-0.123356 -0.125449,-0.173179 -0.239507,-0.222197 -0.261472,-0.112377 -0.0081,0.04054 -0.03418,0.07336 -0.07509,0.09451 -0.101398,0.05244 -0.165324,0.03636 -0.103048,-0.02592 0.02831,-0.02831 -0.05243,-0.06863 -0.223867,-0.111791 -0.09135,-0.02301 -0.10392,-0.02172 -0.129539,0.01332 -0.01561,0.02134 -0.02838,0.07953 -0.02838,0.129302 0,0.07251 -0.0073,0.09033 -0.03675,0.08966 -0.02021,-4.35e-4 -0.23151,0.09641 -0.469543,0.215283 -0.340459,0.170022 -0.440759,0.229571 -0.470159,0.279138 -0.02203,0.03712 -0.04124,0.05224 -0.04678,0.0368 -0.02203,-0.06139 0.203853,-0.320341 0.279427,-0.320341 0.01825,0 0.0293,-0.01181 0.02455,-0.02625 -0.034,-0.103216 -0.282392,0.05731 -0.39899,0.257852 -0.04342,0.07467 -0.07894,0.150094 -0.07894,0.167598 0,0.07783 0.323435,0.506223 0.416481,0.551631 0.04664,0.02276 0.05569,0.0405 0.05371,0.105248 -0.0026,0.08477 -0.101042,0.256081 -0.135077,0.235045 -0.01119,-0.0069 -0.02603,0.0022 -0.03296,0.0202 -0.01623,0.0423 -0.04758,0.04163 -0.09584,-0.002 -0.02121,-0.0191 -0.04542,-0.028 -0.05382,-0.01954 -0.03242,0.03242 -0.02976,0.335526 0.0047,0.541981 0.04652,0.278181 0.106552,0.471398 0.174397,0.561267 0.113783,0.150722 0.322617,0.354535 0.387954,0.378629 0.174945,0.0645 0.252049,0.114862 0.467094,0.305006 0.286714,0.253519 0.37884,0.317862 0.502451,0.350922 0.128358,0.03433 0.163558,0.07714 0.238461,0.290047 0.03454,0.09819 0.102408,0.281349 0.150806,0.407023 0.0484,0.125676 0.101287,0.295796 0.117529,0.37806 0.04295,0.217557 0.18684,0.593928 0.277494,0.725847 0.111887,0.162824 0.583181,0.624017 0.713833,0.698545 0.07539,0.04301 0.110268,0.07621 0.110268,0.104982 0,0.06159 0.107322,0.151654 0.246099,0.206543 0.0668,0.02642 0.140362,0.06419 0.163468,0.08393 0.0231,0.01976 0.08733,0.05278 0.142729,0.07343 0.08856,0.033 0.145619,0.0359 0.472575,0.02405 0.204521,-0.0073 0.456918,-0.01932 0.560886,-0.02645 0.173326,-0.01177 0.192886,-0.0093 0.235457,0.03133 0.02554,0.02436 0.05798,0.08284 0.0721,0.129961 0.03502,0.116883 -0.0111,0.199927 -0.16375,0.294284 -0.06358,0.03932 -0.133762,0.08804 -0.155962,0.108245 -0.05876,0.05351 -0.05128,0.150234 0.01739,0.224913 0.07569,0.08229 0.710041,0.404497 1.09439,0.555865 0.420183,0.165488 0.525267,0.222753 0.700583,0.381817 0.196907,0.178655 0.259145,0.217491 0.534711,0.333696 0.319658,0.134802 0.323788,0.137422 0.364018,0.231273 0.01976,0.04636 0.07763,0.120857 0.128318,0.16551 0.266675,0.234905 0.362462,0.342658 0.431115,0.484969 0.03886,0.08054 0.07063,0.164178 0.07063,0.185872 0,0.02176 -0.0326,0.09284 -0.07245,0.158116 -0.05291,0.08668 -0.07632,0.154075 -0.08673,0.249957 -0.01576,0.14415 -0.02303,0.149257 -0.154364,0.107335 -0.163601,-0.0522 -0.193799,-0.06817 -0.271496,-0.143572 -0.07172,-0.06959 -0.08193,-0.09244 -0.09226,-0.206188 -0.01377,-0.150589 -0.09643,-0.34471 -0.16611,-0.389531 -0.06317,-0.04063 -0.26288,-0.07683 -0.425901,-0.07718 -0.109045,-2.18e-4 -0.14919,-0.01243 -0.278477,-0.08404 -0.174858,-0.09697 -0.190667,-0.115018 -0.145038,-0.165444 0.04967,-0.05489 0.0409,-0.08626 -0.0242,-0.08651 -0.03177,-1.6e-4 -0.09173,-0.0058 -0.13327,-0.01266 -0.0647,-0.01066 -0.08673,-0.0027 -0.154119,0.05653 -0.09117,0.08007 -0.227427,0.278046 -0.295212,0.428997 -0.02594,0.05775 -0.07678,0.141751 -0.112975,0.186671 -0.04845,0.06013 -0.06581,0.103183 -0.06581,0.163312 0,0.05176 -0.02736,0.135978 -0.07476,0.230089 -0.08586,0.170528 -0.08382,0.231281 0.01132,0.333019 0.04623,0.04949 0.07732,0.06357 0.14022,0.06355 0.07918,-4e-5 0.11766,0.02198 0.553413,0.315819 0.05147,0.03471 0.05253,0.04103 0.05431,0.316642 0.0011,0.154674 0.0089,0.337934 0.01732,0.407245 0.01199,0.09697 0.0084,0.135512 -0.01532,0.167198 -0.02678,0.03575 -0.03821,0.03781 -0.08666,0.01577 -0.149079,-0.06792 -0.409739,0.01266 -0.585903,0.181119 l -0.08051,0.077 0.01532,0.199527 c 0.02833,0.367209 0.01799,0.396936 -0.175169,0.499841 -0.185761,0.09901 -0.359709,0.316288 -0.361367,0.451396 -8.84e-4,0.07338 -0.08353,0.202903 -0.138217,0.216625 -0.02928,0.0073 -0.138204,0.0093 -0.24206,0.0042 -0.169292,-0.008 -0.194503,-0.01466 -0.243653,-0.06386 -0.04827,-0.04827 -0.05453,-0.07072 -0.05237,-0.187781 0.0013,-0.07312 -0.01006,-0.161313 -0.02532,-0.195974 l -0.02777,-0.06302 -0.03459,0.08133 c -0.01903,0.04474 -0.03459,0.0874 -0.03459,0.09481 0,0.0073 -0.04261,0.07478 -0.09469,0.149701 -0.28282,0.406908 -0.283963,0.40894 -0.30584,0.544803 -0.02181,0.135357 -0.05601,0.218845 -0.131565,0.321035 -0.03868,0.05231 -0.0404,0.06885 -0.01914,0.183251 0.02908,0.156385 0.113166,0.330732 0.192842,0.399863 0.03624,0.03144 0.06629,0.08331 0.07489,0.129295 0.01554,0.08307 0.0053,0.09839 -0.139971,0.209586 -0.09986,0.07643 -0.137581,0.194331 -0.102385,0.320031 0.04041,0.144328 -0.01432,0.182319 -0.131438,0.09126 z M 12.114023,14.740402 c 0.0037,-0.02509 -0.0022,-0.04561 -0.01319,-0.04561 -0.03222,0 -0.07188,0.0592 -0.05642,0.0842 0.02167,0.03506 0.06206,0.01266 0.06961,-0.03859 z M 11.41623,26.936293 c -0.05651,-0.08069 -0.04373,-0.122545 0.0374,-0.122545 0.08212,0 0.124228,0.04014 0.114452,0.109111 -0.0098,0.06939 -0.106667,0.07796 -0.151857,0.01355 z m 0.439783,-1.864626 c -0.02176,-0.03519 0.0076,-0.06421 0.06505,-0.06421 0.03896,0 0.05097,0.0095 0.0458,0.03675 -0.0079,0.04134 -0.08974,0.06162 -0.110848,0.02747 z m -0.322584,-0.09683 c 0.0095,-0.04561 0.04678,-0.04841 0.0553,-0.0042 0.0044,0.02298 -0.0059,0.03675 -0.0275,0.03675 -0.02018,0 -0.03175,-0.01355 -0.0278,-0.03262 z m 3.763342,-0.702031 c -0.0069,-0.03439 -0.02555,-0.07336 -0.04148,-0.0866 -0.04013,-0.03331 -0.03634,-0.116594 0.006,-0.13287 0.04856,-0.01865 0.0719,0.0111 0.09188,0.117372 0.0094,0.05012 0.02355,0.107624 0.03138,0.127852 0.01084,0.02798 0.0036,0.03675 -0.03054,0.03675 -0.03288,0 -0.0481,-0.01665 -0.05729,-0.06253 z m -0.171272,-0.235711 c -0.0531,-0.05309 -0.0037,-0.115418 0.06931,-0.08742 0.03443,0.0131 0.03813,0.02889 0.01876,0.07938 -0.01517,0.0395 -0.05312,0.04296 -0.08806,0.008 z M 12.96845,23.78926 c -0.01938,-0.03137 0.0076,-0.06302 0.05375,-0.06302 0.04647,0 0.05231,0.02198 0.01557,0.05882 -0.03071,0.03071 -0.05213,0.03202 -0.06931,0.0042 z m 2.635926,-0.154963 c 0,-0.01599 0.01408,-0.04061 0.03125,-0.05487 0.02526,-0.02087 0.03368,-0.01976 0.04387,0.0069 0.0069,0.01798 0.0065,0.04276 -0.0011,0.05487 -0.01981,0.03204 -0.07413,0.02696 -0.07413,-0.0069 z M 7.3431004,23.46026 c -0.00766,-0.0078 -0.058519,-0.01465 -0.1129995,-0.01577 -0.097672,-0.0017 -0.099957,-0.0033 -0.1635918,-0.117327 -0.035493,-0.06353 -0.073647,-0.114463 -0.084782,-0.113175 -0.011147,0.0013 -0.036732,0.03646 -0.056881,0.07816 -0.04338,0.08977 -0.078523,0.08453 -0.1279451,-0.0191 C 6.753445,23.181918 6.751906,23.097967 6.793461,23.085 6.81078,23.0797 6.839573,23.07057 6.857427,23.06502 6.884616,23.05632 6.881261,23.04211 6.836755,22.97663 6.788334,22.90538 6.786416,22.89465 6.815084,22.855573 c 0.054232,-0.07392 0.057964,-0.09586 0.022913,-0.13458 -0.044173,-0.04881 -0.042932,-0.11 0.00642,-0.31665 0.027344,-0.114485 0.036628,-0.206766 0.028612,-0.284425 -0.00997,-0.09661 -0.00604,-0.117194 0.024653,-0.128962 0.021494,-0.0082 0.043811,-0.0022 0.054258,0.01465 0.029536,0.04778 0.049786,0.0027 0.050683,-0.112753 l 8.491e-4,-0.109356 -0.102468,0.0053 -0.1024681,0.0053 0.014255,-0.08937 C 6.820631,21.655567 6.846732,21.55043 6.870806,21.471081 6.904192,21.361037 6.911655,21.295534 6.902263,21.194938 6.888297,21.045415 6.7660224,20.720605 6.6953997,20.64543 c -0.05246,-0.05584 -0.1330322,-0.0643 -0.1515994,-0.01599 -0.022362,0.05826 -0.059707,0.008 -0.04577,-0.06157 0.00724,-0.03617 0.015565,-0.141396 0.018496,-0.233801 0.00555,-0.17497 0.043494,-0.325552 0.082036,-0.325552 0.012323,0 0.053037,0.03544 0.090484,0.07876 0.066495,0.07692 0.071493,0.07876 0.2140087,0.07876 0.133403,0 0.152321,-0.0056 0.2204813,-0.06546 0.041007,-0.03602 0.1087651,-0.07187 0.1505734,-0.07974 0.060093,-0.01132 0.093487,-0.0379 0.1594197,-0.127163 0.045874,-0.0621 0.1228914,-0.144372 0.1711523,-0.18283 0.1062761,-0.08469 0.1855274,-0.163423 0.2304041,-0.228912 l 0.033484,-0.04887 0.1127708,0.04687 c 0.062025,0.02578 0.1710724,0.07947 0.2423307,0.119325 0.1042754,0.05831 0.1382412,0.09093 0.1740477,0.167109 0.053275,0.11333 0.055428,0.153231 0.010924,0.202392 -0.030895,0.03415 -0.030109,0.04079 0.00995,0.08378 0.056017,0.06013 0.1706439,0.33502 0.1706439,0.40923 0,0.03142 0.025302,0.107091 0.056228,0.168175 0.051969,0.102628 0.054245,0.11766 0.030047,0.198417 -0.014411,0.04807 -0.06199,0.126631 -0.1057565,0.174592 -0.1460727,0.160092 -0.155978,0.211029 -0.072916,0.374945 0.048025,0.09477 0.05335,0.125787 0.044047,0.256594 -0.0354,0.497632 -0.06294,0.744443 -0.108008,0.967922 -0.027957,0.138621 -0.058597,0.299297 -0.068094,0.357057 -0.016942,0.103072 -0.018763,0.105137 -0.097661,0.111643 -0.06362,0.0053 -0.1030476,-0.0087 -0.1889402,-0.06652 -0.08955,-0.06035 -0.3309632,-0.13962 -0.4251959,-0.13962 -0.00788,0 -0.00764,0.09404 4.994e-4,0.208986 l 0.01481,0.208986 -0.095571,0.09557 c -0.068866,0.06885 -0.1123556,0.09557 -0.1556338,0.09557 -0.033035,0 -0.066337,-0.0062 -0.074004,-0.01399 z M 6.6108432,23.06407 c -0.026558,-0.05829 -0.013034,-0.08089 0.061943,-0.103538 0.056072,-0.01687 0.079587,0.0242 0.059521,0.10416 -0.017586,0.0701 -0.08941,0.06974 -0.121464,-6.22e-4 z m 7.7268988,-2.375744 c -0.02189,-0.02198 0.0058,-0.04958 0.04968,-0.04958 0.04907,0 0.05394,0.03246 0.0076,0.05027 -0.04101,0.01576 -0.0408,0.01576 -0.05722,-6.77e-4 z M 13.86869,20.397211 c -0.01896,-0.04938 0.0079,-0.09452 0.05614,-0.09452 0.06765,0 0.125299,0.03899 0.125299,0.08475 0,0.03419 -0.0145,0.04128 -0.08467,0.04128 -0.05589,0 -0.08878,-0.01066 -0.09676,-0.03151 z m -1.173168,-0.30436 c -0.01545,-0.025 0.02421,-0.0842 0.05643,-0.0842 0.02789,0 0.01179,0.08948 -0.01785,0.09923 -0.01339,0.0044 -0.03073,-0.0024 -0.03856,-0.0151 z M 6.5939212,19.913285 c 0,-0.01776 0.018207,-0.06803 0.040472,-0.111665 0.073454,-0.143994 0.1485596,-0.16611 0.1485596,-0.04376 0,0.04605 -0.00986,0.06177 -0.038751,0.06177 -0.042155,0 -0.1082723,0.06193 -0.1082723,0.101429 0,0.01354 -0.00946,0.0246 -0.021005,0.0246 -0.011546,0 -0.021005,-0.01465 -0.021005,-0.03235 z m 2.6742126,-2.311657 c -0.013256,-0.03455 0.030546,-0.07676 0.060475,-0.05826 0.00921,0.0058 0.016764,0.02869 0.016764,0.05111 0,0.04914 -0.059021,0.0546 -0.077231,0.0071 z m 0.7744132,-0.01466 c -0.03546,-0.03775 -0.04014,-0.05438 -0.02072,-0.07378 0.04061,-0.04061 0.0779,-0.02891 0.09243,0.029 0.01992,0.0794 -0.01734,0.102672 -0.07171,0.04481 z M 8.9883076,17.15394 c 0,-0.0258 0.013567,-0.04376 0.033046,-0.04376 0.019562,0 0.030276,0.01421 0.026254,0.03502 -0.010214,0.05269 -0.059299,0.05993 -0.059299,0.0087 z m 0.3979145,-0.256072 c -0.044171,-0.03442 -0.06391,-0.0379 -0.1116362,-0.01976 -0.031885,0.01221 -0.095472,0.02198 -0.1412988,0.02198 -0.066868,0 -0.087014,-0.0093 -0.1020172,-0.04725 -0.014522,-0.03673 -0.00899,-0.0556 0.024853,-0.08471 0.035542,-0.03055 0.065505,-0.03495 0.1630345,-0.02391 0.111503,0.01266 0.1223719,0.0098 0.1626282,-0.04132 0.053354,-0.06783 0.085078,-0.06968 0.1010847,-0.006 0.01763,0.07028 0.00282,0.230327 -0.021982,0.236979 -0.011546,0.0031 -0.04515,-0.0131 -0.074662,-0.03615 z m -0.746983,-0.490272 c -0.01561,-0.04066 0.022833,-0.137555 0.054571,-0.137555 0.033182,0 0.025324,0.11766 -0.00979,0.146815 -0.025375,0.02109 -0.033797,0.01932 -0.04477,-0.0093 z"
         id="path221" /><path
         style="fill:none;fill-opacity:1;stroke:#ffffff;stroke-width:0.2125432;stroke-dasharray:none;stroke-opacity:0.60000002"
         d="m 30.788265,18.145219 c -0.02547,-0.01443 -0.09217,-0.03553 -0.148213,-0.04685 -0.13851,-0.02798 -0.310055,-0.08384 -0.509445,-0.165888 -0.0917,-0.03773 -0.189802,-0.07434 -0.218023,-0.08131 -0.03188,-0.008 -0.07576,-0.04676 -0.115973,-0.102739 -0.05344,-0.07441 -0.09694,-0.106469 -0.250632,-0.184805 l -0.18596,-0.09479 h -0.237672 c -0.188669,0 -0.24243,0.0058 -0.260738,0.02778 -0.01266,0.01532 -0.04605,0.02778 -0.07414,0.02778 -0.03806,0 -0.06848,0.02132 -0.119392,0.08335 -0.0836,0.102029 -0.143306,0.108557 -0.267985,0.0294 -0.08145,-0.05171 -0.09408,-0.05398 -0.302534,-0.054 -0.128896,-2e-5 -0.22234,0.0078 -0.229305,0.0191 -0.0064,0.01044 -0.05609,0.03861 -0.110267,0.06259 -0.105803,0.04678 -0.125609,0.07199 -0.16753,0.213116 -0.01488,0.05014 -0.03133,0.09117 -0.03655,0.09117 -0.0051,0 -0.03351,-0.01243 -0.0629,-0.02762 -0.03877,-0.01998 -0.08353,-0.02449 -0.163023,-0.01621 l -0.109578,0.01155 -0.01665,-0.154608 -0.01665,-0.154608 -0.07998,-0.05358 c -0.04558,-0.03053 -0.113308,-0.104559 -0.157473,-0.172127 -0.04339,-0.06637 -0.09521,-0.123278 -0.117749,-0.129273 -0.05655,-0.0151 -0.24588,0.09923 -0.29661,0.179033 -0.06841,0.107624 -0.0949,0.128496 -0.163068,0.128496 -0.056,0 -0.0711,-0.01044 -0.113375,-0.07874 -0.02682,-0.0433 -0.06761,-0.09956 -0.09064,-0.125055 -0.02303,-0.02547 -0.05171,-0.07725 -0.06379,-0.115062 -0.01421,-0.04428 -0.05511,-0.09652 -0.115084,-0.146725 -0.07094,-0.0594 -0.111488,-0.11584 -0.170151,-0.236919 l -0.07705,-0.15896 -0.18525,-0.07749 c -0.314429,-0.131516 -0.36625,-0.143639 -0.466821,-0.109378 -0.08431,0.02873 -0.08671,0.02844 -0.147525,-0.01799 -0.03402,-0.02593 -0.06184,-0.05418 -0.06184,-0.06273 0,-0.0087 -0.03753,-0.05731 -0.0834,-0.108335 l -0.0834,-0.09275 0.06486,-0.06486 c 0.06706,-0.06706 0.08113,-0.118993 0.04263,-0.157495 -0.01399,-0.01399 -0.0832,-0.02223 -0.185428,-0.02223 h -0.163179 l -0.154119,-0.117594 c -0.14284,-0.108978 -0.286377,-0.17881 -0.367558,-0.17881 -0.04625,0 -0.04479,0.09179 0.0038,0.23276 0.04088,0.118815 0.03737,0.156273 -0.01466,0.156273 -0.01865,0 -0.09099,0.0375 -0.160803,0.08336 -0.06981,0.04585 -0.132581,0.08335 -0.139464,0.08335 -0.02309,0 -0.08691,-0.08235 -0.147459,-0.19029 -0.05738,-0.102272 -0.112975,-0.157517 -0.297625,-0.295698 -0.04585,-0.0343 -0.08336,-0.07378 -0.08336,-0.08768 0,-0.01399 0.03426,-0.03673 0.07614,-0.05067 0.09943,-0.03315 0.15614,-0.09572 0.168197,-0.185583 0.008,-0.05929 0.0011,-0.08251 -0.03697,-0.126875 -0.03928,-0.04567 -0.05982,-0.05402 -0.129296,-0.05258 -0.05236,0.0011 -0.114818,0.01976 -0.170661,0.05094 -0.105093,0.05873 -0.10194,0.05831 -0.10194,0.01377 0,-0.06743 -0.02154,-0.09415 -0.07607,-0.09415 -0.03411,0 -0.0536,-0.0095 -0.0536,-0.02647 0,-0.01465 -0.01288,-0.03932 -0.02856,-0.05502 -0.03775,-0.03775 -0.374106,-0.140819 -0.459541,-0.140819 -0.05977,0 -0.07028,-0.0076 -0.09541,-0.06757 -0.01554,-0.03717 -0.04059,-0.07676 -0.05569,-0.08799 -0.0151,-0.01132 -0.03491,-0.06075 -0.04403,-0.110022 -0.02109,-0.113508 -0.03513,-0.126697 -0.147525,-0.137488 -0.102562,-0.0098 -0.116861,0.0038 -0.160936,0.152987 -0.02154,0.07283 -0.02351,0.07421 -0.117172,0.07971 -0.0524,0.0031 -0.0953,-6.77e-4 -0.0953,-0.0082 0,-0.0075 0.02043,-0.0435 0.04545,-0.07971 0.07356,-0.106536 0.216936,-0.481261 0.227363,-0.594256 0.0058,-0.06339 -0.0029,-0.157561 -0.02283,-0.247468 -0.03066,-0.137777 -0.03653,-0.148058 -0.116039,-0.203324 -0.164445,-0.114285 -0.158938,-0.106447 -0.133825,-0.190224 0.02065,-0.0691 0.01798,-0.08502 -0.03515,-0.206099 -0.03168,-0.07216 -0.0576,-0.148458 -0.0576,-0.169529 0,-0.02109 0.02578,-0.08751 0.05731,-0.147636 0.04923,-0.09392 0.05724,-0.128563 0.05678,-0.245732 -0.0015,-0.37681 4.35e-4,-0.363062 -0.06599,-0.456559 -0.08771,-0.123364 -0.0915,-0.148226 -0.03863,-0.252681 0.05227,-0.103254 0.05984,-0.219868 0.02043,-0.314297 -0.01421,-0.03387 -0.119148,-0.155536 -0.233318,-0.270375 l -0.207587,-0.208799 0.01199,-0.08063 c 0.01021,-0.06849 0.02478,-0.08974 0.09632,-0.141114 0.09121,-0.06551 0.143728,-0.150119 0.164667,-0.265326 0.0073,-0.04028 0.02784,-0.102419 0.04561,-0.138079 0.06095,-0.122412 0.061,-0.170764 2.18e-4,-0.414641 -0.03475,-0.13966 -0.06395,-0.3180184 -0.0737,-0.4501914 -0.0089,-0.1203935 -0.02618,-0.2464151 -0.03848,-0.2800496 -0.01221,-0.033635 -0.0171,-0.066435 -0.01066,-0.072888 0.0064,-0.00644 0.07203,-0.012323 0.145704,-0.013034 0.116461,-0.00109 0.150944,-0.010081 0.263653,-0.0685 0.07132,-0.036968 0.22341,-0.097405 0.33797,-0.1343044 0.262583,-0.08458 1.013208,-0.2810592 1.169063,-0.3060075 0.0647,-0.010347 0.131383,-0.02855 0.148191,-0.040427 0.01688,-0.011879 0.118238,-0.1127219 0.225404,-0.2240938 l 0.194842,-0.2024981 0.166399,-0.046687 c 0.108756,-0.030511 0.242503,-0.089026 0.386051,-0.1688941 0.211828,-0.1178578 0.35483,-0.1713345 0.458175,-0.1713345 0.02702,0 0.135668,-0.024957 0.24142,-0.055462 0.146681,-0.042306 0.230069,-0.055486 0.351613,-0.055577 0.226003,-1.714e-4 0.268376,0.018607 0.323546,0.1433704 0.0248,0.056074 0.0451,0.1162968 0.0451,0.1338293 0,0.017519 0.01554,0.046023 0.03475,0.06332 0.023,0.020827 0.0391,0.069883 0.04763,0.1452644 0.01465,0.1304009 0.04074,0.1885915 0.115129,0.2576287 0.06983,0.064832 0.143062,0.09975 0.261921,0.1249076 0.219244,0.046402 0.384488,0.015721 0.68988,-0.128105 0.10738,-0.05057 0.21758,-0.091948 0.244855,-0.091948 0.02729,0 0.177012,0.020539 0.332728,0.045639 0.356271,0.057431 1.031399,0.1223741 1.394634,0.1341579 0.211206,0.00686 0.405726,-0.00264 0.810718,-0.039626 0.545791,-0.049822 0.59923,-0.059017 0.641915,-0.1104527 0.03439,-0.041444 0.0717,-0.037172 0.141707,0.016209 0.03313,0.025268 0.14908,0.092962 0.257643,0.1504247 0.277375,0.1468054 0.288919,0.1676907 0.37216,0.6731689 0.05949,0.3612255 0.205922,0.8111212 0.36138,1.1102642 0.08049,0.154877 0.108757,0.228522 0.106825,0.278178 -0.0015,0.03715 0.0064,0.09658 0.01754,0.132075 0.0111,0.0355 0.0304,0.165142 0.04301,0.288099 0.02254,0.219735 0.0222,0.224847 -0.01954,0.299168 -0.04616,0.08214 -0.0655,0.09514 -0.232149,0.155987 -0.155918,0.05694 -0.300415,0.20461 -0.398333,0.407091 -0.04081,0.08439 -0.07421,0.173008 -0.07421,0.196938 0,0.06602 0.07583,0.129657 0.171616,0.144023 0.04601,0.0069 0.104271,0.02632 0.129473,0.04317 0.215847,0.14423 0.217623,0.147765 0.217623,0.436585 0,0.17437 -0.006,0.217135 -0.03926,0.279151 -0.03215,0.05997 -0.03768,0.09526 -0.03053,0.194931 0.0073,0.102872 0.02198,0.144483 0.09483,0.268825 0.07474,0.127674 0.08611,0.160847 0.08611,0.250952 0,0.107512 0.02724,0.159426 0.202591,0.386104 0.02833,0.03664 0.07103,0.116617 0.09488,0.177745 0.03017,0.07734 0.07354,0.140797 0.142573,0.208609 0.08271,0.08125 0.09366,0.09919 0.06577,0.107846 -0.116173,0.03617 -0.128763,0.105692 -0.03595,0.198505 0.07359,0.07359 0.09852,0.178078 0.07711,0.323309 -0.0254,0.172394 -0.08839,0.245459 -0.211628,0.245459 -0.0911,0 -0.252233,0.141863 -0.41031,0.361245 -0.04405,0.06113 -0.123677,0.162868 -0.176945,0.226086 -0.09517,0.11293 -0.493766,0.685861 -0.616482,0.88611 -0.0812,0.132493 -0.0911,0.225175 -0.04132,0.386353 0.02154,0.06948 0.03901,0.173438 0.03901,0.231006 0,0.15352 0.02551,0.218912 0.119592,0.306514 0.06581,0.06131 0.0842,0.09126 0.0842,0.137311 0,0.0324 -0.0022,0.05862 -0.0047,0.05826 -0.0024,-4.35e-4 -0.02547,-0.01243 -0.05094,-0.02691 z"
         id="path3209" /><g
         id="g3449"
         transform="matrix(0.21711139,0,0,0.21711139,-6.6096375,-26.154724)"
         style="stroke:#ffffff;stroke-opacity:0.60000002"><path
           style="fill:none;fill-opacity:1;stroke:#ffffff;stroke-width:0.499999;stroke-dasharray:none;stroke-opacity:0.60000002"
           d="m 80.230159,174.45686 c 7.520395,-5.46856 16.577152,-8.68981 25.782401,-9.75593 9.32573,-1.08007 18.85337,0.17965 27.72556,3.09383 6.84705,2.249 13.8654,5.33149 18.58084,10.91865 0.13545,0.16049 0.26941,0.32256 0.39327,0.49227"
           id="path3338"
           inkscape:path-effect="#path-effect3340"
           inkscape:original-d="m 80.230159,174.45686 c 0,0 15.68526,-12.6254 39.422191,-9.67706 25.04594,3.11093 33.05988,14.42588 33.05988,14.42588"
           sodipodi:nodetypes="csc" /><g
           id="g3443"
           transform="rotate(-20.077755,151.70973,180.53173)"
           style="stroke:#ffffff;stroke-opacity:0.60000002"><path
             style="fill:none;fill-opacity:1;stroke:#ffffff;stroke-width:0.499999;stroke-dasharray:none;stroke-opacity:0.60000002"
             d="m 150.38628,179.59875 c 1.1406,0.58892 2.2812,1.17785 3.4218,1.76677"
             id="path3395"
             inkscape:path-effect="#path-effect3397"
             inkscape:original-d="m 150.38628,179.59875 3.4218,1.76677" /><path
             style="fill:none;fill-opacity:1;stroke:#ffffff;stroke-width:0.467797;stroke-dasharray:none;stroke-opacity:0.60000002"
             d="m 155.25992,178.34701 c -0.59779,1.04018 -1.19557,2.08037 -1.79336,3.12055"
             id="path3395-6"
             inkscape:path-effect="#path-effect3397-8"
             inkscape:original-d="m 155.25992,178.34701 -1.79336,3.12055" /></g></g></g></g></svg>
