<?xml version="1.0" encoding="UTF-8" standalone="no"?>
<!-- Created with Inkscape (http://www.inkscape.org/) -->

<svg
   width="48mm"
   height="48mm"
   viewBox="0 0 48 47.999998"
   version="1.1"
   id="svg5"
   xml:space="preserve"
   inkscape:version="1.2.2 (b0a8486, 2022-12-01)"
   sodipodi:docname="map.svg"
   xmlns:inkscape="http://www.inkscape.org/namespaces/inkscape"
   xmlns:sodipodi="http://sodipodi.sourceforge.net/DTD/sodipodi-0.dtd"
   xmlns="http://www.w3.org/2000/svg"
   xmlns:svg="http://www.w3.org/2000/svg"><sodipodi:namedview
     id="namedview7"
     pagecolor="#ffffff"
     bordercolor="#000000"
     borderopacity="0.25"
     inkscape:showpageshadow="2"
     inkscape:pageopacity="0.0"
     inkscape:pagecheckerboard="0"
     inkscape:deskcolor="#d1d1d1"
     inkscape:document-units="mm"
     showgrid="false"
     inkscape:zoom="4.0618292"
     inkscape:cx="76.689586"
     inkscape:cy="78.412947"
     inkscape:window-width="1440"
     inkscape:window-height="847"
     inkscape:window-x="0"
     inkscape:window-y="25"
     inkscape:window-maximized="0"
     inkscape:current-layer="g7202" /><defs
     id="defs2"><inkscape:path-effect
       effect="simplify"
       id="path-effect3397"
       is_visible="true"
       lpeversion="1"
       steps="1"
       threshold="0.00192982"
       smooth_angles="360"
       helper_size="0"
       simplify_individual_paths="false"
       simplify_just_coalesce="false" /><inkscape:path-effect
       effect="simplify"
       id="path-effect3340"
       is_visible="true"
       lpeversion="1"
       steps="1"
       threshold="0.00192982"
       smooth_angles="360"
       helper_size="0"
       simplify_individual_paths="false"
       simplify_just_coalesce="false" /><inkscape:path-effect
       effect="simplify"
       id="path-effect3397-8"
       is_visible="true"
       lpeversion="1"
       steps="1"
       threshold="0.00192982"
       smooth_angles="360"
       helper_size="0"
       simplify_individual_paths="false"
       simplify_just_coalesce="false" /></defs><g
     inkscape:label="Layer 1"
     inkscape:groupmode="layer"
     id="layer1"><g
       id="g7202"
       transform="matrix(1.6561339,0,0,1.6561339,-6.2730492,-5.0307379)"
       style="stroke:#000000;stroke-opacity:0.5"><path
         id="path221"
         style="fill:none;stroke:#ffffff;stroke-width:0.241526;stroke-dasharray:none;stroke-opacity:0.80000001"
         d="m 11.738929,8.9350164 c -0.02841,0.00314 -0.164474,0.048804 -0.302358,0.1014099 -0.201558,0.076895 -0.259997,0.091427 -0.297677,0.074263 -0.09183,-0.041844 -0.287195,-0.048748 -0.441523,-0.015602 -0.286724,0.06158 -0.406888,0.1389298 -0.406888,0.2627297 0,0.1252853 -0.130143,0.1991285 -0.262418,0.1488385 C 9.993647,9.4935715 9.934978,9.4500405 9.8979486,9.4096145 L 9.830862,9.3359756 9.677343,9.3503291 c -0.084382,0.00791 -0.1628791,0.023197 -0.1744251,0.034011 -0.018561,0.017354 -0.019518,0.1075606 -0.00374,0.4689818 0.00314,0.072632 -0.00283,0.084961 -0.043996,0.090801 C 9.4289899,9.9478529 9.3742239,9.9397729 9.33349,9.9263369 9.276913,9.9076649 9.256691,9.8875079 9.24737,9.8408409 9.23988,9.8034219 9.221793,9.7799469 9.200877,9.7799949 9.136554,9.7801415 9.0318541,9.8623169 8.9890083,9.9463071 8.9254713,10.070851 8.9329673,10.13918 9.0186513,10.21715 c 0.1035588,0.09424 0.1290202,0.255302 0.048365,0.306102 -0.058033,0.03655 -0.1057365,-0.0085 -0.1479025,-0.139478 -0.020694,-0.06431 -0.050899,-0.122044 -0.067087,-0.128244 -0.048408,-0.01858 -0.1609117,0.02356 -0.2780192,0.104218 -0.08579,0.05906 -0.1224784,0.07295 -0.1656882,0.06209 -0.084463,-0.0212 -0.1710513,-0.120329 -0.1865943,-0.213429 -0.020022,-0.119877 -0.024593,-0.129044 -0.079568,-0.165064 -0.040396,-0.02645 -0.06302,-0.02644 -0.1166994,-0.0094 -0.079167,0.0276 -0.1035518,0.09666 -0.06615,0.186906 0.047108,0.11373 -0.019586,0.309842 -0.1460302,0.429978 -0.081025,0.07698 -0.1559209,0.202928 -0.1912747,0.321392 -0.025736,0.08623 -0.024699,0.09207 0.030891,0.150086 0.049582,0.05175 0.054526,0.06686 0.033699,0.105779 -0.040232,0.07517 -0.1094126,0.04773 -0.1488386,-0.05929 -0.018612,-0.05051 -0.054677,-0.107788 -0.080192,-0.126996 -0.039484,-0.0298 -0.04442,-0.0475 -0.032763,-0.120444 0.011886,-0.07431 0.00717,-0.09041 -0.035259,-0.120132 -0.026907,-0.01886 -0.088454,-0.03432 -0.1369814,-0.03432 -0.099433,0 -0.1830328,-0.05755 -0.2823876,-0.194707 -0.056399,-0.07784 -0.057927,-0.08709 -0.046181,-0.268347 l 0.012169,-0.187842 h -0.060846 c -0.1061939,1.93e-4 -0.1712707,0.06246 -0.2711545,0.259921 -0.051905,0.102603 -0.094597,0.206433 -0.094857,0.230903 -6.794e-4,0.06546 -0.07789,0.225062 -0.1407257,0.290812 -0.030105,0.0315 -0.08559,0.06767 -0.1235641,0.08019 -0.037974,0.01253 -0.07467,0.04013 -0.08144,0.06147 -0.0273,0.08602 -0.063873,0.09024 -0.1975153,0.02278 -0.069917,-0.0353 -0.1432781,-0.06397 -0.1628799,-0.06397 -0.019609,0 -0.08586,0.0285 -0.1475905,0.06334 -0.079232,0.04469 -0.1277641,0.05926 -0.1647521,0.04992 -0.031976,-0.008 -0.071642,-5.38e-4 -0.1017219,0.01935 -0.089732,0.05878 -0.1864407,0.0643 -0.2499365,0.01435 -0.058431,-0.04597 -0.099538,-0.04145 -0.099538,0.01092 0,0.03711 -0.065402,0.07301 -0.132925,0.07301 -0.087671,0 -0.1497747,0.06771 -0.1497747,0.163504 0,0.06837 0.018593,0.107847 0.098602,0.209684 0.054143,0.06891 0.1100662,0.152361 0.1241881,0.185658 0.014124,0.03334 0.072469,0.109613 0.1298047,0.169433 l 0.1042182,0.108899 -0.011545,0.128244 c -0.0064,0.07056 -0.024442,0.143536 -0.03994,0.162256 -0.049786,0.06011 -0.3138674,0.174816 -0.3700682,0.160696 -0.028128,-0.0071 -0.1065273,0.005 -0.1747371,0.02683 -0.1177334,0.03762 -0.1515077,0.07224 -0.1007859,0.103595 0.012645,0.0078 0.048991,0.07237 0.080816,0.143222 0.100451,0.223586 0.1576776,0.270791 0.3828615,0.316711 0.040236,0.0082 0.059609,0.02822 0.068959,0.07083 0.016269,0.07406 -6.25e-4,0.117673 -0.1310528,0.335432 l -0.1045302,0.174113 0.028707,0.149775 c 0.030295,0.159007 0.099842,0.283449 0.1978273,0.353219 0.030972,0.02207 0.1382683,0.08274 0.2383913,0.135109 0.2084903,0.10907 0.2891039,0.118342 0.4561887,0.05242 0.059692,-0.02343 0.1096928,-0.03981 0.1110828,-0.03651 0.00138,0.0033 0.019627,0.04018 0.040876,0.08206 0.035563,0.07007 0.036304,0.08111 0.00624,0.139166 -0.017945,0.03471 -0.081813,0.116746 -0.1416618,0.182226 -0.1087448,0.118969 -0.1087994,0.118924 -0.083936,0.201884 l 0.024962,0.08331 h 0.1628799 c 0.089641,0 0.172193,-0.0085 0.183162,-0.01872 0.010976,-0.01028 0.071886,-0.03359 0.1354212,-0.0518 0.063536,-0.01821 0.168564,-0.06662 0.2333988,-0.107339 0.1040808,-0.06537 0.123257,-0.08822 0.16288,-0.196891 0.063415,-0.17391 0.1274707,-0.260992 0.2096845,-0.284572 0.057642,-0.01654 0.080065,-0.04192 0.1304287,-0.148526 0.06294,-0.133216 0.119918,-0.187856 0.3004854,-0.286756 l 0.102346,-0.05617 0.2337109,0.06116 c 0.3801587,0.09927 0.4359485,0.122518 0.6062753,0.253057 0.1941508,0.148797 0.4551428,0.289226 0.6568242,0.35353 0.1620324,0.05166 0.2727637,0.139802 0.3591472,0.28582 0.040929,0.06921 0.05518,0.134181 0.071767,0.325448 0.025832,0.297781 0.049638,0.380062 0.1479025,0.512354 0.1408174,0.189611 0.1733012,0.275319 0.1834739,0.483024 0.011866,0.241754 0.080325,0.388478 0.1812897,0.388478 0.077583,0 0.1379175,0.05861 0.1379175,0.133861 0,0.07392 0.077115,0.164938 0.1613197,0.190338 0.06428,0.01939 0.274278,0.25145 0.328568,0.363204 l 0.04524,0.09299 -0.07083,0.05773 c -0.06141,0.05011 -0.06736,0.06364 -0.0468,0.102034 0.03589,0.06706 0.09931,0.07771 0.163192,0.02746 0.07608,-0.05984 0.125929,-0.05489 0.29362,0.02902 0.220581,0.110355 0.305033,0.193102 0.372253,0.364452 0.06339,0.161561 0.09406,0.196646 0.20282,0.232774 0.09796,0.03258 0.275326,0.155573 0.328256,0.227783 0.02342,0.03195 0.05289,0.08885 0.06584,0.126372 0.01382,0.04007 0.100729,0.141608 0.210309,0.24588 0.102629,0.09766 0.212044,0.214712 0.243384,0.259922 0.05694,0.08216 0.107629,0.111408 0.332312,0.193146 0.119439,0.04348 0.226103,0.138024 0.273963,0.243072 0.03338,0.07326 0.08948,0.08074 0.218421,0.0284 l 0.115452,-0.04681 0.206564,0.04681 c 0.147768,0.03341 0.21792,0.04078 0.24588,0.0259 0.112379,-0.06014 0.27995,0.124779 0.487704,0.53794 0.04716,0.09381 0.10533,0.181111 0.12918,0.193771 0.02625,0.0142 0.08653,0.01742 0.152583,0.01 0.09958,-0.01237 0.117008,-0.008 0.199388,0.0518 0.130421,0.09471 0.131776,0.116949 0.01435,0.224662 -0.07625,0.06998 -0.09499,0.0988 -0.07676,0.117012 0.01822,0.01823 0.04248,0.01553 0.0986,-0.01123 0.04094,-0.01951 0.112292,-0.03557 0.158512,-0.03557 0.04622,0 0.104838,-0.01312 0.130428,-0.02933 0.02559,-0.01618 0.07821,-0.036 0.1167,-0.044 0.05645,-0.01179 0.07983,-0.0054 0.121068,0.03339 0.06276,0.05897 0.137006,0.185759 0.186906,0.318895 0.03593,0.09587 0.03583,0.103446 3.12e-4,0.182226 -0.05618,0.12457 -0.03234,0.178283 0.110459,0.250873 0.06622,0.03366 0.181711,0.115147 0.256801,0.180977 0.19584,0.17171 0.21305,0.177588 0.30423,0.09735 0.09551,-0.08395 0.153699,-0.08422 0.236519,0.0022 0.08896,0.09194 0.145016,0.226108 0.170056,0.40876 0.02242,0.163514 0.08762,0.32662 0.191587,0.477719 0.08791,0.127768 0.123191,0.234835 0.147591,0.45026 0.02734,0.241311 0.073,0.386774 0.148214,0.472414 0.06926,0.07886 0.07732,0.145284 0.03151,0.254929 -0.02854,0.06843 -0.03634,0.07302 -0.127932,0.07302 -0.113367,0 -0.214519,0.04255 -0.308599,0.130429 -0.06335,0.05917 -0.06465,0.06329 -0.02559,0.08394 0.06251,0.03288 0.09361,0.08133 0.09361,0.145718 0,0.08534 -0.05967,0.249061 -0.11982,0.328881 -0.0549,0.07282 -0.151372,0.124338 -0.172552,0.09205 -0.01877,-0.02862 -0.09974,-0.06709 -0.14135,-0.06709 -0.02048,0 -0.167879,0.06316 -0.327632,0.140414 -0.273235,0.132179 -0.294591,0.139233 -0.359459,0.115763 -0.13523,-0.04891 -0.277753,-0.03196 -0.425298,0.05055 -0.225488,0.1261 -0.497328,0.174538 -0.774772,0.13823 -0.134149,-0.01759 -0.158731,-0.01453 -0.278643,0.03432 -0.129589,0.05285 -0.132924,0.05287 -0.241512,0.01841 -0.136295,-0.04325 -0.373083,-0.180185 -0.396903,-0.229655 -0.05486,-0.113924 -0.04842,-0.110626 -0.196891,-0.107026 -0.162679,0.0039 -0.251184,0.05193 -0.251184,0.135733 0,0.07099 -0.0218,0.09586 -0.107651,0.124188 -0.07407,0.02445 -0.077,0.02321 -0.176921,-0.0752 l -0.101722,-0.100162 -0.118884,0.07146 c -0.158715,0.09552 -0.211659,0.163069 -0.241199,0.307662 -0.0136,0.06655 -0.03457,0.142023 -0.04681,0.167873 -0.03971,0.08384 0.01595,0.212577 0.145718,0.336368 l 0.115452,0.110459 0.171304,-0.01279 c 0.163208,-0.0121 0.177523,-0.0097 0.294557,0.05242 0.06759,0.03589 0.135543,0.06521 0.151023,0.06521 0.01548,0 0.08255,0.0478 0.14915,0.106091 0.123306,0.107892 0.290668,0.212689 0.385358,0.241199 0.02888,0.0087 0.09713,0.05592 0.151647,0.104843 0.150134,0.134686 0.259396,0.178169 0.447764,0.178169 0.233919,0 0.377188,0.08648 0.537628,0.324824 0.07978,0.118498 0.11338,0.147748 0.25961,0.225598 0.155152,0.08264 0.180676,0.08955 0.330128,0.09018 0.133375,6.5e-4 0.171944,0.0089 0.220294,0.04649 0.117118,0.09106 0.171774,0.0529 0.131364,-0.09143 -0.03519,-0.125658 0.0025,-0.243401 0.102346,-0.319831 0.145271,-0.111196 0.155642,-0.126614 0.140102,-0.209684 -0.0086,-0.04599 -0.03865,-0.09774 -0.07489,-0.129181 -0.07968,-0.06913 -0.163755,-0.243638 -0.192835,-0.400023 -0.02126,-0.114401 -0.01965,-0.130852 0.01903,-0.183162 0.07556,-0.10219 0.109867,-0.185723 0.131677,-0.32108 0.02188,-0.135821 0.02297,-0.137897 0.30579,-0.544805 0.05208,-0.07492 0.05825,-0.09222 0.05825,-0.09952 0,-0.0074 0.0519,-0.100377 0.07093,-0.145117 0.02539,0.0091 0.04327,-0.01255 0.06241,-0.0181 0.01526,0.03466 0.02658,0.122835 0.02528,0.195955 -0.0022,0.117061 0.0042,0.139572 0.05242,0.187842 0.04915,0.0492 0.0744,0.05565 0.243696,0.06365 0.103856,0.0051 0.212585,0.0032 0.241823,-0.0041 0.05469,-0.01372 0.137346,-0.143169 0.13823,-0.216549 0.0017,-0.135108 0.175924,-0.35254 0.361643,-0.451508 0.193159,-0.102905 0.203338,-0.132706 0.17505,-0.499873 l -0.01529,-0.199388 0.0805,-0.07707 c 0.176164,-0.168459 0.436914,-0.24921 0.585993,-0.18129 0.04845,0.02204 0.05965,0.02015 0.08643,-0.0156 0.02372,-0.03169 0.02728,-0.07028 0.01529,-0.167248 -0.0084,-0.06931 -0.01606,-0.252526 -0.01716,-0.4072 -0.0018,-0.275612 -0.0028,-0.282001 -0.05429,-0.316711 -0.435711,-0.293839 -0.474362,-0.315815 -0.553542,-0.315775 -0.0629,2e-5 -0.09387,-0.01416 -0.140102,-0.06365 -0.09514,-0.101738 -0.09709,-0.162409 -0.01123,-0.332937 0.0474,-0.09411 0.07458,-0.178206 0.07458,-0.229966 0,-0.06013 0.01739,-0.103374 0.06584,-0.163504 0.03619,-0.04492 0.08702,-0.128844 0.112955,-0.186594 0.06779,-0.150951 0.204011,-0.348972 0.295181,-0.429042 0.06739,-0.05923 0.08944,-0.06714 0.154143,-0.05648 0.04154,0.0069 0.101467,0.01232 0.133237,0.01248 0.0651,2.5e-4 0.07401,0.03186 0.02434,0.08675 -0.04563,0.05043 -0.02976,0.06841 0.145095,0.165376 0.129245,0.07161 0.169286,0.08372 0.278331,0.08394 0.163021,3.5e-4 0.362751,0.03675 0.425921,0.07738 0.06968,0.04482 0.152231,0.238825 0.166001,0.389414 0.01033,0.113748 0.02064,0.136662 0.09236,0.206252 0.0777,0.0754 0.107865,0.09133 0.271466,0.143534 0.131334,0.04192 0.138695,0.03681 0.154455,-0.107338 0.01041,-0.09588 0.03383,-0.163257 0.08675,-0.249937 0.03985,-0.06528 0.07239,-0.136439 0.07239,-0.158199 0,-0.02169 -0.03166,-0.10543 -0.07052,-0.18597 -0.06865,-0.142311 -0.164551,-0.249991 -0.431226,-0.484896 -0.05069,-0.04465 -0.108485,-0.119016 -0.128245,-0.165376 -0.04023,-0.09385 -0.04448,-0.09641 -0.364139,-0.231215 -0.275566,-0.116163 -0.337602,-0.155217 -0.534509,-0.333872 -0.175274,-0.159064 -0.280679,-0.216438 -0.70082,-0.381926 -0.384349,-0.151326 -1.018601,-0.473436 -1.094291,-0.555726 -0.06867,-0.07468 -0.07623,-0.171464 -0.01747,-0.224974 0.0222,-0.02021 0.09243,-0.06896 0.156015,-0.108275 0.15265,-0.09436 0.198836,-0.177361 0.163816,-0.294244 -0.01412,-0.04712 -0.04654,-0.105445 -0.07208,-0.129805 -0.04257,-0.04063 -0.06226,-0.04328 -0.235583,-0.03151 -0.103968,0.0071 -0.356198,0.01922 -0.560719,0.02652 -0.326914,0.01185 -0.384166,0.009 -0.472726,-0.02403 -0.0554,-0.02065 -0.119498,-0.05357 -0.142598,-0.07333 -0.02311,-0.01974 -0.0967,-0.05752 -0.163504,-0.08394 -0.138777,-0.05489 -0.246192,-0.145016 -0.246192,-0.206564 0,-0.02877 -0.03476,-0.06215 -0.110147,-0.105155 -0.13061,-0.07453 -0.60208,-0.5355 -0.713925,-0.698324 -0.09065,-0.131919 -0.234446,-0.508538 -0.277396,-0.726095 -0.01624,-0.08226 -0.06923,-0.252193 -0.117635,-0.377869 -0.0484,-0.125674 -0.116171,-0.30901 -0.150711,-0.4072 -0.0749,-0.212907 -0.110033,-0.255546 -0.238391,-0.289876 -0.123611,-0.03306 -0.216009,-0.09752 -0.502681,-0.351035 -0.215045,-0.190102 -0.292165,-0.240353 -0.46711,-0.304853 -0.06534,-0.02409 -0.274071,-0.228125 -0.387854,-0.378805 -0.06785,-0.08987 -0.127905,-0.283204 -0.174425,-0.561343 -0.03446,-0.206455 -0.03628,-0.509265 -0.0047,-0.541685 0.0084,-0.0085 0.03277,8.2e-5 0.05398,0.01935 0.04826,0.04363 0.07956,0.04366 0.09579,0.0022 0.0069,-0.018 0.02157,-0.02718 0.03276,-0.02028 0.03403,0.02104 0.13251,-0.150189 0.13511,-0.234959 0.002,-0.06475 -0.007,-0.08271 -0.05367,-0.105466 -0.09305,-0.04541 -0.41656,-0.473882 -0.41656,-0.55167 0,-0.0175 0.03552,-0.09289 0.07894,-0.167561 0.116598,-0.200542 0.365087,-0.360953 0.399087,-0.257737 0.0048,0.01444 -0.0064,0.02621 -0.02465,0.02621 -0.07557,0 -0.301297,0.259065 -0.279267,0.320455 0.0055,0.01544 0.02477,3e-4 0.0468,-0.03682 0.0294,-0.04957 0.129501,-0.109245 0.469918,-0.279267 0.238033,-0.118873 0.449396,-0.215736 0.469606,-0.215301 0.02945,6.7e-4 0.03682,-0.01704 0.03682,-0.08955 0,-0.04977 0.01281,-0.108153 0.02839,-0.129493 0.02562,-0.03504 0.03814,-0.03611 0.129492,-0.0131 0.171437,0.04316 0.252348,0.0834 0.224038,0.111707 -0.06228,0.06228 0.0016,0.07834 0.10297,0.0259 0.04091,-0.02115 0.0671,-0.05401 0.0752,-0.09455 0.02196,-0.10982 0.13572,-0.06085 0.261169,0.112331 0.07314,0.100956 0.07487,0.114864 0.01373,0.123564 -0.07144,0.01015 -0.04759,0.04762 0.03495,0.05492 0.08386,0.0074 0.20126,-0.04547 0.20126,-0.0908 0,-0.017 -0.03501,-0.07943 -0.0777,-0.138854 -0.05664,-0.07884 -0.10632,-0.120851 -0.18441,-0.155391 -0.146246,-0.06467 -0.172216,-0.09887 -0.140726,-0.18597 0.03029,-0.08385 0.03368,-0.22279 0.0034,-0.22279 -0.01171,0 -0.04035,0.01178 -0.06365,0.02621 -0.03439,0.02124 -0.04579,0.0207 -0.06022,-0.0025 -0.02904,-0.04665 -0.0037,-0.09769 0.09455,-0.191275 0.06445,-0.06142 0.09249,-0.10563 0.09236,-0.14447 -1.6e-4,-0.04963 -0.01356,-0.06002 -0.12138,-0.09361 -0.06676,-0.02074 -0.13732,-0.03174 -0.15664,-0.02434 -0.02583,0.0099 -0.03878,-0.0012 -0.04899,-0.04181 -0.0173,-0.06893 0.01436,-0.106126 0.216549,-0.256489 C 13.849153,10.01956 13.814276,9.9773529 13.263138,9.9134909 13.101767,9.8947929 12.874771,9.8564829 12.758896,9.8286189 12.643064,9.8007499 12.457642,9.7618409 12.347016,9.7418749 12.117003,9.7003089 12.056072,9.6674599 11.977572,9.5431144 11.847893,9.337714 11.816914,9.2973442 11.778184,9.2850652 c -0.02244,-0.00712 -0.05657,-0.045465 -0.07551,-0.085184 l -0.03432,-0.072079 0.06865,-0.062718 c 0.08043,-0.073427 0.08016,-0.1389068 0.0019,-0.1301168 z m -3.8704269,10.4979546 -0.033387,0.04899 c -0.044877,0.06549 -0.1240066,0.144382 -0.2302785,0.22903 -0.048261,0.03846 -0.1254308,0.120438 -0.1713048,0.182538 -0.065933,0.08926 -0.099355,0.115989 -0.1594476,0.127309 -0.041808,0.0079 -0.1093917,0.04386 -0.1503987,0.07988 -0.06816,0.05986 -0.087203,0.06521 -0.2206056,0.06521 -0.1425073,0 -0.1475621,-0.0017 -0.2140529,-0.07863 -0.037447,-0.04332 -0.078166,-0.07863 -0.090489,-0.07863 -0.038542,0 -0.076514,0.150519 -0.082064,0.325447 -0.00293,0.0924 -0.01117,0.197541 -0.01841,0.233711 -0.013937,0.06957 0.023502,0.11973 0.045869,0.06147 0.018567,-0.04831 0.098875,-0.03961 0.1513348,0.01623 0.070623,0.07518 0.1929144,0.399963 0.2068762,0.549486 0.00939,0.100596 0.00218,0.166103 -0.031203,0.276147 -0.024074,0.07935 -0.050198,0.184592 -0.058038,0.23371 l -0.014353,0.08924 0.102346,-0.0053 0.1026581,-0.0053 -9.361e-4,0.109211 c -8.97e-4,0.115453 -0.021013,0.160735 -0.050549,0.112955 -0.010447,-0.01685 -0.032799,-0.02287 -0.054293,-0.01467 -0.030693,0.01177 -0.03462,0.03226 -0.02465,0.128869 0.00802,0.07766 -0.00136,0.170087 -0.028707,0.284572 -0.049352,0.20665 -0.050849,0.267901 -0.00655,0.316711 0.035051,0.03872 0.031454,0.06057 -0.022778,0.134485 -0.028668,0.03908 -0.026891,0.04982 0.02153,0.121068 0.044506,0.06548 0.048095,0.07961 0.020906,0.08831 -0.017854,0.0055 -0.046647,0.01467 -0.063966,0.01997 -0.041555,0.01297 -0.039942,0.09702 0.00343,0.188155 0.049422,0.10363 0.084553,0.108968 0.1279325,0.01903 0.020149,-0.0417 0.045643,-0.07702 0.056789,-0.07832 0.011135,-0.0013 0.049379,0.04974 0.084872,0.113267 0.063635,0.114027 0.065832,0.115624 0.163504,0.117324 0.054481,0.0011 0.1052951,0.0081 0.1129551,0.01591 0.023854,0.01325 0.052369,0.0097 0.073951,0.01373 0.043278,0 0.086837,-0.02663 0.1557032,-0.09548 l 0.095481,-0.09579 -0.014665,-0.208749 c -0.00814,-0.114904 -0.0085,-0.20906 -6.24e-4,-0.20906 0.094233,0 0.3357518,0.07913 0.4252976,0.139478 0.085892,0.05782 0.1254705,0.07207 0.1890905,0.06677 0.078898,-0.0065 0.080412,-0.0086 0.097354,-0.111707 0.0095,-0.05776 0.040378,-0.218654 0.068335,-0.357275 0.045068,-0.223479 0.072563,-0.470328 0.1079625,-0.967918 0.0093,-0.130807 0.00403,-0.16172 -0.043996,-0.25649 -0.083062,-0.163874 -0.073369,-0.214968 0.072703,-0.37506 0.043767,-0.04796 0.091367,-0.126355 0.1057784,-0.174425 0.024198,-0.08076 0.022014,-0.09582 -0.029955,-0.198452 -0.030926,-0.06108 -0.056166,-0.136764 -0.056166,-0.168184 0,-0.07421 -0.1146679,-0.348942 -0.1706807,-0.409072 -0.040059,-0.04299 -0.040675,-0.04979 -0.00999,-0.08394 0.044504,-0.04916 0.042354,-0.08918 -0.010921,-0.202508 -0.035806,-0.07618 -0.069838,-0.108668 -0.174113,-0.166936 -0.071258,-0.03985 -0.1801107,-0.09342 -0.2421357,-0.119196 z"
         sodipodi:nodetypes="cccsssccccccccsccsccccccccccccccccsccccccscccsccccsssccccccccccccccccccccccccscssccccccssccccsssccccccccscsccscccccccccccscccscscccsscscsscscssccsccsscsccccscccccscscscccscssscsscscccscccccccccccccccssscccsccsccccsscscccccccsccccccsccsccscsccccccccsccsccccsccccccccssccsccccccccscccccccccccccccscsscccssccccccccccccccccscccccccscccsccccsscccccc" /><path
         style="fill:none;fill-opacity:1;stroke:#ffffff;stroke-width:0.24152636;stroke-dasharray:none;stroke-opacity:0.80000001"
         d="m 30.788265,18.145219 c -0.02547,-0.01443 -0.09217,-0.03553 -0.148213,-0.04685 -0.13851,-0.02798 -0.310055,-0.08384 -0.509445,-0.165888 -0.0917,-0.03773 -0.189802,-0.07434 -0.218023,-0.08131 -0.03188,-0.008 -0.07576,-0.04676 -0.115973,-0.102739 -0.05344,-0.07441 -0.09694,-0.106469 -0.250632,-0.184805 l -0.18596,-0.09479 h -0.237672 c -0.188669,0 -0.24243,0.0058 -0.260738,0.02778 -0.01266,0.01532 -0.04605,0.02778 -0.07414,0.02778 -0.03806,0 -0.06848,0.02132 -0.119392,0.08335 -0.0836,0.102029 -0.143306,0.108557 -0.267985,0.0294 -0.08145,-0.05171 -0.09408,-0.05398 -0.302534,-0.054 -0.128896,-2e-5 -0.22234,0.0078 -0.229305,0.0191 -0.0064,0.01044 -0.05609,0.03861 -0.110267,0.06259 -0.105803,0.04678 -0.125609,0.07199 -0.16753,0.213116 -0.01488,0.05014 -0.03133,0.09117 -0.03655,0.09117 -0.0051,0 -0.03351,-0.01243 -0.0629,-0.02762 -0.03877,-0.01998 -0.08353,-0.02449 -0.163023,-0.01621 l -0.109578,0.01155 -0.01665,-0.154608 -0.01665,-0.154608 -0.07998,-0.05358 c -0.04558,-0.03053 -0.113308,-0.104559 -0.157473,-0.172127 -0.04339,-0.06637 -0.09521,-0.123278 -0.117749,-0.129273 -0.05655,-0.0151 -0.24588,0.09923 -0.29661,0.179033 -0.06841,0.107624 -0.0949,0.128496 -0.163068,0.128496 -0.056,0 -0.0711,-0.01044 -0.113375,-0.07874 -0.02682,-0.0433 -0.06761,-0.09956 -0.09064,-0.125055 -0.02303,-0.02547 -0.05171,-0.07725 -0.06379,-0.115062 -0.01421,-0.04428 -0.05511,-0.09652 -0.115084,-0.146725 -0.07094,-0.0594 -0.111488,-0.11584 -0.170151,-0.236919 l -0.07705,-0.15896 -0.18525,-0.07749 c -0.314429,-0.131516 -0.36625,-0.143639 -0.466821,-0.109378 -0.08431,0.02873 -0.08671,0.02844 -0.147525,-0.01799 -0.03402,-0.02593 -0.06184,-0.05418 -0.06184,-0.06273 0,-0.0087 -0.03753,-0.05731 -0.0834,-0.108335 l -0.0834,-0.09275 0.06486,-0.06486 c 0.06706,-0.06706 0.08113,-0.118993 0.04263,-0.157495 -0.01399,-0.01399 -0.0832,-0.02223 -0.185428,-0.02223 h -0.163179 l -0.154119,-0.117594 c -0.14284,-0.108978 -0.286377,-0.17881 -0.367558,-0.17881 -0.04625,0 -0.04479,0.09179 0.0038,0.23276 0.04088,0.118815 0.03737,0.156273 -0.01466,0.156273 -0.01865,0 -0.09099,0.0375 -0.160803,0.08336 -0.06981,0.04585 -0.132581,0.08335 -0.139464,0.08335 -0.02309,0 -0.08691,-0.08235 -0.147459,-0.19029 -0.05738,-0.102272 -0.112975,-0.157517 -0.297625,-0.295698 -0.04585,-0.0343 -0.08336,-0.07378 -0.08336,-0.08768 0,-0.01399 0.03426,-0.03673 0.07614,-0.05067 0.09943,-0.03315 0.15614,-0.09572 0.168197,-0.185583 0.008,-0.05929 0.0011,-0.08251 -0.03697,-0.126875 -0.03928,-0.04567 -0.05982,-0.05402 -0.129296,-0.05258 -0.05236,0.0011 -0.114818,0.01976 -0.170661,0.05094 -0.105093,0.05873 -0.10194,0.05831 -0.10194,0.01377 0,-0.06743 -0.02154,-0.09415 -0.07607,-0.09415 -0.03411,0 -0.0536,-0.0095 -0.0536,-0.02647 0,-0.01465 -0.01288,-0.03932 -0.02856,-0.05502 -0.03775,-0.03775 -0.374106,-0.140819 -0.459541,-0.140819 -0.05977,0 -0.07028,-0.0076 -0.09541,-0.06757 -0.01554,-0.03717 -0.04059,-0.07676 -0.05569,-0.08799 -0.0151,-0.01132 -0.03491,-0.06075 -0.04403,-0.110022 -0.02109,-0.113508 -0.03513,-0.126697 -0.147525,-0.137488 -0.102562,-0.0098 -0.116861,0.0038 -0.160936,0.152987 -0.02154,0.07283 -0.02351,0.07421 -0.117172,0.07971 -0.0524,0.0031 -0.0953,-6.77e-4 -0.0953,-0.0082 0,-0.0075 0.02043,-0.0435 0.04545,-0.07971 0.07356,-0.106536 0.216936,-0.481261 0.227363,-0.594256 0.0058,-0.06339 -0.0029,-0.157561 -0.02283,-0.247468 -0.03066,-0.137777 -0.03653,-0.148058 -0.116039,-0.203324 -0.164445,-0.114285 -0.158938,-0.106447 -0.133825,-0.190224 0.02065,-0.0691 0.01798,-0.08502 -0.03515,-0.206099 -0.03168,-0.07216 -0.0576,-0.148458 -0.0576,-0.169529 0,-0.02109 0.02578,-0.08751 0.05731,-0.147636 0.04923,-0.09392 0.05724,-0.128563 0.05678,-0.245732 -0.0015,-0.37681 4.35e-4,-0.363062 -0.06599,-0.456559 -0.08771,-0.123364 -0.0915,-0.148226 -0.03863,-0.252681 0.05227,-0.103254 0.05984,-0.219868 0.02043,-0.314297 -0.01421,-0.03387 -0.119148,-0.155536 -0.233318,-0.270375 l -0.207587,-0.208799 0.01199,-0.08063 c 0.01021,-0.06849 0.02478,-0.08974 0.09632,-0.141114 0.09121,-0.06551 0.143728,-0.150119 0.164667,-0.265326 0.0073,-0.04028 0.02784,-0.102419 0.04561,-0.138079 0.06095,-0.122412 0.061,-0.170764 2.18e-4,-0.414641 -0.03475,-0.13966 -0.06395,-0.3180184 -0.0737,-0.4501914 -0.0089,-0.1203935 -0.02618,-0.2464151 -0.03848,-0.2800496 -0.01221,-0.033635 -0.0171,-0.066435 -0.01066,-0.072888 0.0064,-0.00644 0.07203,-0.012323 0.145704,-0.013034 0.116461,-0.00109 0.150944,-0.010081 0.263653,-0.0685 0.07132,-0.036968 0.22341,-0.097405 0.33797,-0.1343044 0.262583,-0.08458 1.013208,-0.2810592 1.169063,-0.3060075 0.0647,-0.010347 0.131383,-0.02855 0.148191,-0.040427 0.01688,-0.011879 0.118238,-0.1127219 0.225404,-0.2240938 l 0.194842,-0.2024981 0.166399,-0.046687 c 0.108756,-0.030511 0.242503,-0.089026 0.386051,-0.1688941 0.211828,-0.1178578 0.35483,-0.1713345 0.458175,-0.1713345 0.02702,0 0.135668,-0.024957 0.24142,-0.055462 0.146681,-0.042306 0.230069,-0.055486 0.351613,-0.055577 0.226003,-1.714e-4 0.268376,0.018607 0.323546,0.1433704 0.0248,0.056074 0.0451,0.1162968 0.0451,0.1338293 0,0.017519 0.01554,0.046023 0.03475,0.06332 0.023,0.020827 0.0391,0.069883 0.04763,0.1452644 0.01465,0.1304009 0.04074,0.1885915 0.115129,0.2576287 0.06983,0.064832 0.143062,0.09975 0.261921,0.1249076 0.219244,0.046402 0.384488,0.015721 0.68988,-0.128105 0.10738,-0.05057 0.21758,-0.091948 0.244855,-0.091948 0.02729,0 0.177012,0.020539 0.332728,0.045639 0.356271,0.057431 1.031399,0.1223741 1.394634,0.1341579 0.211206,0.00686 0.405726,-0.00264 0.810718,-0.039626 0.545791,-0.049822 0.59923,-0.059017 0.641915,-0.1104527 0.03439,-0.041444 0.0717,-0.037172 0.141707,0.016209 0.03313,0.025268 0.14908,0.092962 0.257643,0.1504247 0.277375,0.1468054 0.288919,0.1676907 0.37216,0.6731689 0.05949,0.3612255 0.205922,0.8111212 0.36138,1.1102642 0.08049,0.154877 0.108757,0.228522 0.106825,0.278178 -0.0015,0.03715 0.0064,0.09658 0.01754,0.132075 0.0111,0.0355 0.0304,0.165142 0.04301,0.288099 0.02254,0.219735 0.0222,0.224847 -0.01954,0.299168 -0.04616,0.08214 -0.0655,0.09514 -0.232149,0.155987 -0.155918,0.05694 -0.300415,0.20461 -0.398333,0.407091 -0.04081,0.08439 -0.07421,0.173008 -0.07421,0.196938 0,0.06602 0.07583,0.129657 0.171616,0.144023 0.04601,0.0069 0.104271,0.02632 0.129473,0.04317 0.215847,0.14423 0.217623,0.147765 0.217623,0.436585 0,0.17437 -0.006,0.217135 -0.03926,0.279151 -0.03215,0.05997 -0.03768,0.09526 -0.03053,0.194931 0.0073,0.102872 0.02198,0.144483 0.09483,0.268825 0.07474,0.127674 0.08611,0.160847 0.08611,0.250952 0,0.107512 0.02724,0.159426 0.202591,0.386104 0.02833,0.03664 0.07103,0.116617 0.09488,0.177745 0.03017,0.07734 0.07354,0.140797 0.142573,0.208609 0.08271,0.08125 0.09366,0.09919 0.06577,0.107846 -0.116173,0.03617 -0.128763,0.105692 -0.03595,0.198505 0.07359,0.07359 0.09852,0.178078 0.07711,0.323309 -0.0254,0.172394 -0.08839,0.245459 -0.211628,0.245459 -0.0911,0 -0.252233,0.141863 -0.41031,0.361245 -0.04405,0.06113 -0.123677,0.162868 -0.176945,0.226086 -0.09517,0.11293 -0.493766,0.685861 -0.616482,0.88611 -0.0812,0.132493 -0.0911,0.225175 -0.04132,0.386353 0.02154,0.06948 0.03901,0.173438 0.03901,0.231006 0,0.15352 0.02551,0.218912 0.119592,0.306514 0.06581,0.06131 0.0842,0.09126 0.0842,0.137311 0,0.0324 -0.0022,0.05862 -0.0047,0.05826 -0.0024,-4.35e-4 -0.02547,-0.01243 -0.05094,-0.02691 z"
         id="path3209" /><path
         style="fill:none;fill-opacity:1;stroke:#ffffff;stroke-width:0.210717;stroke-linecap:round;stroke-dasharray:0.63215098, 0.63215098;stroke-opacity:0.80000001;stroke-dashoffset:0"
         d="m 10.806942,11.606961 c 0.502918,-0.366671 1.052848,-0.665465 1.616923,-0.926067 2.090318,-0.9657261 4.446971,-1.3446803 6.73386,-1.0826417 1.672062,0.1915899 3.344422,0.5647587 4.86567,1.2996417 0.75952,0.366908 1.497673,0.808382 2.098933,1.404982 0.09058,0.08988 0.179199,0.182314 0.257641,0.283114"
         id="path3338"
         inkscape:path-effect="#path-effect3340"
         inkscape:original-d="m 10.806942,11.606961 c 0,0 3.370033,-2.6028836 8.469996,-1.9950477 5.381208,0.6413577 7.103031,2.9740767 7.103031,2.9740767"
         sodipodi:nodetypes="csc" /><g
         id="g3443"
         transform="matrix(0.20391701,-0.07453327,0.07453327,0.20391701,-18.063542,-12.465298)"
         style="stroke:#ffffff;stroke-width:1.00121;stroke-dasharray:none;stroke-opacity:0.80000001"><path
           style="fill:none;fill-opacity:1;stroke:#ffffff;stroke-width:1.00121;stroke-linecap:round;stroke-dasharray:none;stroke-opacity:0.80000001"
           d="m 150.53454,179.35711 c 1.04176,0.75002 2.08352,1.50003 3.12528,2.25005"
           id="path3395"
           inkscape:path-effect="#path-effect3397"
           inkscape:original-d="m 150.53454,179.35711 3.12528,2.25005" /><path
           style="fill:none;fill-opacity:1;stroke:#ffffff;stroke-width:1.00121;stroke-linecap:round;stroke-dasharray:none;stroke-opacity:0.80000001"
           d="m 154.91311,178.19377 c -0.36658,1.14234 -0.73316,2.28469 -1.09974,3.42703"
           id="path3395-6"
           inkscape:path-effect="#path-effect3397-8"
           inkscape:original-d="m 154.91311,178.19377 -1.09974,3.42703" /></g></g></g></svg>
